<?xml version="1.0" encoding="UTF-8" standalone="no"?>
<svg
   xmlns:dc="http://purl.org/dc/elements/1.1/"
   xmlns:cc="http://creativecommons.org/ns#"
   xmlns:rdf="http://www.w3.org/1999/02/22-rdf-syntax-ns#"
   xmlns:svg="http://www.w3.org/2000/svg"
   xmlns="http://www.w3.org/2000/svg"
   viewBox="0 0 488 149.33333"
   height="149.33333"
   width="488"
   xml:space="preserve"
   id="svg2"
   version="1.1"><metadata
     id="metadata8"><rdf:RDF><cc:Work
         rdf:about=""><dc:format>image/svg+xml</dc:format><dc:type
           rdf:resource="http://purl.org/dc/dcmitype/StillImage" /></cc:Work></rdf:RDF></metadata><defs
     id="defs6" /><g
     transform="matrix(1.3333333,0,0,-1.3333333,0,149.33333)"
     id="g10"><g
       transform="scale(0.1)"
       id="g12"><path
         id="path14"
         style="fill:#003a78;fill-opacity:1;fill-rule:evenodd;stroke:none"
         d="M 849.488,190 475.512,563.98 569.488,658.012 478.48,749.488 293.012,563.98 849.488,7.5 1138.48,296.988 1047.5,388.012 849.488,190" /><path
         id="path16"
         style="fill:#003a78;fill-opacity:1;fill-rule:evenodd;stroke:none"
         d="M 1220,748.98 848.98,1120 560,830.512 651.48,739.488 848.98,937.5 1047.5,739.488 1128.98,658.012 1223.01,563.52 1128.98,469.488 1220,378.012 1405.51,563.52 1220,748.98" /><path
         id="path18"
         style="fill:#fdb811;fill-opacity:1;fill-rule:evenodd;stroke:none"
         d="m 1295,967.5 -146.52,-146.48 81.52,-81.532 65,64.492 250,-250 -250,-250 -65,64.54 -91.02,91.48 -93.98,93.98 93.98,94.032 L 1057.5,730 881.48,553.98 1057.5,378.012 1148.48,286.988 1295,140.512 1708.48,553.98 1295,967.5" /><path
         id="path20"
         style="fill:#fdb811;fill-opacity:1;fill-rule:evenodd;stroke:none"
         d="M 560,831.02 413.48,977.5 0,563.98 413.48,150.512 560,296.988 478.012,378.52 413.48,313.98 l -250,250 250,250 64.532,-64.492 91.476,-91.476 L 663.48,563.98 569.488,470 650.98,388.012 826.988,563.98 650.98,740 560,831.02" /><path
         id="path22"
         style="fill:#003d78;fill-opacity:1;fill-rule:nonzero;stroke:none"
         d="m 1892.46,612.5 h -64.06 v 143.121 h -225.63 c -4.49,0 -8.71,0.828 -12.65,2.5 -3.87,1.649 -7.27,3.91 -10.16,6.719 -2.81,2.89 -5.08,6.289 -6.72,10.16 -1.56,3.949 -2.34,8.121 -2.34,12.5 v 175.16 h 63.44 V 819.531 H 1828.4 V 962.66 h 64.06 z m 418.59,32.031 c 0,-4.609 -0.85,-8.871 -2.5,-12.812 -1.56,-3.867 -3.82,-7.27 -6.71,-10.16 -2.93,-2.809 -6.37,-5.079 -10.32,-6.719 -3.86,-1.559 -7.97,-2.34 -12.34,-2.34 h -143.13 c -13.55,0 -27.26,1.449 -41.09,4.379 -13.75,2.891 -27.15,7.383 -40.16,13.43 -12.92,6.14 -25.11,13.953 -36.56,23.441 -11.36,9.449 -21.33,20.66 -29.84,33.59 -8.56,12.89 -15.28,27.699 -20.16,44.379 -4.8,16.64 -7.19,35.23 -7.19,55.781 v 175.16 h 63.44 V 787.5 c 0,-17.93 2.42,-33.09 7.35,-45.469 5,-12.301 11.28,-22.621 18.9,-30.941 7.7,-8.238 16.1,-14.762 25.16,-19.531 9.14,-4.68 17.85,-8.2 26.09,-10.469 8.21,-2.301 15.47,-3.75 21.72,-4.371 6.25,-0.547 10.35,-0.778 12.34,-0.778 h 111.57 V 962.66 h 63.43 z" /><path
         id="path24"
         style="fill:#003d78;fill-opacity:1;fill-rule:nonzero;stroke:none"
         d="m 2995.2,962.66 -58.6,-328.129 c -1.37,-6.562 -4.33,-12.261 -8.9,-17.031 -4.5,-4.691 -10,-7.66 -16.57,-8.91 -6.68,-1.129 -12.97,-0.391 -18.9,2.191 -5.94,2.578 -10.63,6.641 -14.07,12.188 L 2762.07,813.91 2645.51,622.969 c -2.74,-4.688 -6.49,-8.36 -11.25,-10.938 -4.81,-2.582 -9.96,-3.91 -15.47,-3.91 -7.74,0 -14.49,2.469 -20.31,7.348 -5.86,4.883 -9.46,11.25 -10.78,19.062 l -59.07,328.129 h 64.38 l 42.03,-231.25 100.16,159.68 c 2.69,4.691 6.44,8.32 11.25,10.941 4.88,2.578 10.07,3.91 15.62,3.91 5.51,0 10.63,-1.332 15.31,-3.91 4.69,-2.621 8.6,-6.25 11.72,-10.941 l 99.69,-159.68 41.87,231.25 z" /><path
         id="path26"
         style="fill:#003d78;fill-opacity:1;fill-rule:nonzero;stroke:none"
         d="m 3319.18,789.059 c 0,-8.86 -1.56,-18.399 -4.69,-28.59 -3.12,-10.117 -8.12,-19.528 -15,-28.278 -6.87,-8.671 -15.9,-15.941 -27.03,-21.882 -11.17,-5.86 -24.76,-8.75 -40.78,-8.75 H 3117.3 v 60.32 h 114.38 c 8.63,0 15.31,2.652 20,7.961 4.77,5.32 7.19,11.879 7.19,19.691 0,8.321 -2.66,14.848 -7.97,19.528 -5.31,4.691 -11.72,7.031 -19.22,7.031 H 3117.3 c -8.67,0 -15.39,-2.649 -20.15,-7.969 -4.69,-5.23 -7.03,-11.711 -7.03,-19.531 v -88.75 c 0,-8.43 2.65,-15 7.97,-19.68 5.31,-4.691 11.87,-7.039 19.68,-7.039 h 113.91 V 612.5 H 3117.3 c -8.86,0 -18.39,1.48 -28.59,4.531 -10.12,3.129 -19.53,8.129 -28.28,15 -8.67,6.949 -15.94,16.02 -21.88,27.188 -5.85,11.133 -8.75,24.691 -8.75,40.621 v 89.219 c 0,8.75 1.57,18.171 4.69,28.281 3.13,10.199 8.13,19.691 15,28.441 6.88,8.75 15.86,16.02 27.03,21.879 11.25,5.82 24.85,8.75 40.78,8.75 h 114.38 c 8.83,0 18.32,-1.57 28.44,-4.691 10.19,-3.047 19.61,-8.047 28.28,-15 8.75,-6.879 16.01,-15.899 21.87,-27.028 5.94,-11.171 8.91,-24.691 8.91,-40.632 z" /><path
         id="path28"
         style="fill:#003d78;fill-opacity:1;fill-rule:nonzero;stroke:none"
         d="m 3653.36,701.559 c 0,-5.938 -0.7,-12.297 -2.03,-19.059 -1.37,-6.68 -3.56,-13.281 -6.56,-19.84 -2.93,-6.57 -6.72,-12.89 -11.41,-18.91 -4.61,-6.051 -10.16,-11.41 -16.72,-16.09 -6.56,-4.609 -14.18,-8.281 -22.81,-11.101 -8.67,-2.731 -18.44,-4.059 -29.38,-4.059 h -114.37 c -6.06,0 -12.42,0.66 -19.06,2.031 -6.68,1.449 -13.36,3.629 -20,6.559 -6.57,2.89 -12.9,6.64 -18.91,11.25 -6.06,4.691 -11.41,10.32 -16.09,16.879 -4.61,6.562 -8.29,14.222 -11.1,22.972 -2.73,8.75 -4.06,18.508 -4.06,29.368 v 286.41 h 63.59 v -286.41 c 0,-7.809 2.39,-14.059 7.19,-18.75 4.88,-4.61 11.02,-6.868 18.44,-6.868 h 114.37 c 8.01,0 14.26,2.34 18.75,7.028 4.46,4.761 6.72,10.98 6.72,18.59 V 787.5 c 0,8.012 -2.42,14.262 -7.19,18.75 -4.68,4.449 -10.78,6.719 -18.28,6.719 h -114.37 v 63.441 h 114.37 c 6.02,0 12.39,-0.711 19.07,-2.031 6.64,-1.367 13.28,-3.559 19.84,-6.57 6.64,-2.93 13.01,-6.719 19.06,-11.399 6.02,-4.609 11.29,-10.16 15.78,-16.719 4.57,-6.57 8.21,-14.179 10.94,-22.812 2.81,-8.68 4.22,-18.438 4.22,-29.379 z" /><path
         id="path30"
         style="fill:#003d79;fill-opacity:1;fill-rule:nonzero;stroke:none"
         d="m 1862.46,234.84 c 0,-3.039 -0.62,-5.891 -1.87,-8.59 -1.18,-2.73 -2.74,-5.078 -4.69,-7.031 -1.99,-1.989 -4.34,-3.559 -7.03,-4.688 -2.74,-1.172 -5.55,-1.722 -8.44,-1.722 -3.13,0 -6.05,0.55 -8.75,1.722 -2.62,1.129 -4.96,2.699 -7.03,4.688 -1.99,1.953 -3.56,4.301 -4.69,7.031 -1.05,2.699 -1.56,5.551 -1.56,8.59 0,3.012 0.51,5.82 1.56,8.441 1.13,2.699 2.7,5.039 4.69,7.028 2.07,1.961 4.41,3.519 7.03,4.691 2.7,1.25 5.62,1.879 8.75,1.879 2.89,0 5.7,-0.629 8.44,-1.879 2.69,-1.172 5.04,-2.73 7.03,-4.691 1.95,-1.989 3.51,-4.329 4.69,-7.028 1.25,-2.621 1.87,-5.429 1.87,-8.441 z m 284.1,80.16 c 0,-14.922 -2.61,-28.672 -7.81,-41.25 -5.12,-12.5 -12.27,-23.281 -21.41,-32.34 -9.06,-9.07 -19.92,-16.18 -32.5,-21.25 -12.5,-5.121 -26.09,-7.66 -40.78,-7.66 h -120 c -3.12,0 -6.09,0.551 -8.9,1.719 -2.74,1.133 -5.08,2.691 -7.04,4.691 -1.99,1.949 -3.55,4.289 -4.68,7.031 -1.17,2.809 -1.72,5.778 -1.72,8.899 v 200.32 c 0,3.121 0.55,6.012 1.72,8.75 1.13,2.692 2.69,5.07 4.68,7.18 1.96,2.07 4.3,3.64 7.04,4.691 2.81,1.129 5.78,1.719 8.9,1.719 h 120 c 14.69,0 28.28,-2.578 40.78,-7.66 12.58,-5.11 23.44,-12.18 32.5,-21.25 9.14,-9.059 16.29,-19.918 21.41,-32.5 5.2,-12.61 7.81,-26.32 7.81,-41.09 z m -44.37,40 c 0,8.629 -1.41,16.559 -4.22,23.75 -2.81,7.191 -6.8,13.281 -11.88,18.281 -5.11,5.078 -11.25,9.059 -18.43,11.879 -7.11,2.809 -14.96,4.211 -23.6,4.211 h -97.97 V 256.879 h 97.97 c 8.64,0 16.49,1.402 23.6,4.211 7.18,2.82 13.32,6.719 18.43,11.719 5.08,5.082 9.07,11.171 11.88,18.281 2.81,7.191 4.22,15.16 4.22,23.91 z" /><path
         id="path32"
         style="fill:#003d79;fill-opacity:1;fill-rule:nonzero;stroke:none"
         d="m 2392.07,312.66 h -140.309 v 44.8398 h 140.309 z m 20,-100.16 h -160.31 c -6.17,0 -12.89,1.09 -20.16,3.281 -7.3,2.188 -14.06,5.699 -20.31,10.629 -6.25,5 -11.49,11.442 -15.63,19.371 -4.06,7.891 -6.09,17.578 -6.09,29.059 v 160.32 c 0,3.121 0.51,6.012 1.56,8.75 1.14,2.692 2.7,5.07 4.69,7.18 2.07,2.07 4.45,3.64 7.19,4.691 2.69,1.129 5.66,1.719 8.9,1.719 h 200.16 V 413.121 H 2233.95 V 274.84 c 0,-5.86 1.48,-10.309 4.53,-13.43 3.12,-3.051 7.65,-4.531 13.59,-4.531 h 160 z" /><path
         id="path34"
         style="fill:#003d79;fill-opacity:1;fill-rule:nonzero;stroke:none"
         d="m 2689.84,284.691 c 0,-8.871 -1.09,-16.8 -3.28,-23.75 -2.18,-6.992 -5.11,-13.211 -8.75,-18.601 -3.67,-5.309 -7.93,-9.84 -12.81,-13.59 -4.92,-3.75 -10,-6.84 -15.31,-9.219 -5.24,-2.422 -10.55,-4.179 -15.94,-5.312 -5.43,-1.168 -10.55,-1.719 -15.31,-1.719 h -171.41 v 44.379 h 171.41 c 8.51,0 15.15,2.5 19.84,7.5 4.77,5.07 7.19,11.871 7.19,20.312 0,4.059 -0.63,7.809 -1.88,11.25 -1.25,3.438 -3.08,6.399 -5.47,8.899 -2.3,2.5 -5.11,4.422 -8.43,5.781 -3.36,1.328 -7.11,2.039 -11.25,2.039 h -102.19 c -7.19,0 -14.96,1.25 -23.28,3.75 -8.24,2.57 -15.94,6.75 -23.13,12.5 -7.11,5.699 -13.04,13.16 -17.81,22.34 -4.69,9.262 -7.03,20.551 -7.03,33.91 0,13.32 2.34,24.57 7.03,33.75 4.77,9.141 10.7,16.602 17.81,22.34 7.19,5.699 14.89,9.84 23.13,12.34 8.32,2.582 16.09,3.91 23.28,3.91 h 151.25 v -44.379 h -151.25 c -8.44,0 -15.08,-2.57 -19.84,-7.652 -4.69,-5.117 -7.03,-11.879 -7.03,-20.309 0,-8.558 2.34,-15.32 7.03,-20.32 4.76,-4.918 11.4,-7.34 19.84,-7.34 h 102.5 c 4.77,-0.23 9.84,-0.941 15.16,-2.191 5.39,-1.168 10.78,-2.969 16.09,-5.469 5.31,-2.5 10.35,-5.699 15.16,-9.531 4.76,-3.75 8.98,-8.36 12.65,-13.75 3.75,-5.309 6.64,-11.481 8.75,-18.438 2.19,-6.871 3.28,-14.68 3.28,-23.43 z" /><path
         id="path36"
         style="fill:#003d79;fill-opacity:1;fill-rule:nonzero;stroke:none"
         d="m 2727.46,212.5 h 44.5273 v 245 H 2727.46 Z" /><path
         id="path38"
         style="fill:#003d79;fill-opacity:1;fill-rule:nonzero;stroke:none"
         d="m 3066.09,234.84 c 0,-3.121 -0.58,-6.09 -1.71,-8.899 -1.18,-2.742 -2.74,-5.082 -4.69,-7.031 -1.99,-2 -4.38,-3.558 -7.19,-4.691 -2.73,-1.168 -5.62,-1.719 -8.75,-1.719 h -160.31 c -4.18,0 -8.67,0.469 -13.44,1.41 -4.69,1.012 -9.34,2.539 -13.91,4.531 -4.61,2.071 -9.02,4.719 -13.28,7.969 -4.18,3.199 -7.89,7.11 -11.09,11.711 -3.24,4.688 -5.86,10.039 -7.81,16.098 -2,6.133 -2.97,13.011 -2.97,20.621 v 120.32 c 0,4.141 0.47,8.59 1.4,13.281 1.02,4.68 2.54,9.289 4.54,13.899 2.07,4.691 4.76,9.109 8.12,13.281 3.32,4.258 7.27,8.008 11.88,11.258 4.57,3.199 9.88,5.781 15.93,7.652 6.02,1.949 12.89,2.969 20.63,2.969 h 180.62 v -44.379 h -180.62 c -5.86,0 -10.32,-1.562 -13.44,-4.68 -3.05,-3.05 -4.53,-7.582 -4.53,-13.601 v -120 c 0,-5.621 1.56,-10.07 4.69,-13.281 3.12,-3.118 7.54,-4.68 13.28,-4.68 h 138.12 v 55.781 h -118.12 v 44.84 h 140.31 c 3.13,0 6.02,-0.621 8.75,-1.879 2.81,-1.172 5.2,-2.769 7.19,-4.84 1.95,-2.109 3.51,-4.492 4.69,-7.191 1.13,-2.61 1.71,-5.469 1.71,-8.59 z" /><path
         id="path40"
         style="fill:#003d79;fill-opacity:1;fill-rule:nonzero;stroke:none"
         d="m 3357.7,231.41 c 0,-3.129 -0.63,-6.101 -1.88,-8.91 -1.17,-2.73 -2.77,-5.078 -4.84,-7.031 -2,-1.989 -4.34,-3.52 -7.03,-4.688 -2.74,-1.133 -5.63,-1.722 -8.75,-1.722 -2.74,0 -5.47,0.55 -8.29,1.562 -2.81,1.059 -5.27,2.699 -7.34,5 L 3157.23,385.16 V 212.5 h -44.53 v 226.09 c 0,4.57 1.25,8.68 3.75,12.351 2.57,3.75 5.93,6.481 10,8.278 4.14,1.761 8.43,2.191 12.81,1.25 4.45,-0.86 8.32,-2.891 11.56,-6.09 L 3313.16,285 v 172.5 h 44.54 z" /></g></g></svg>